<?xml version="1.0" standalone="no"?>
<!DOCTYPE svg PUBLIC "-//W3C//DTD SVG 20010904//EN"
 "http://www.w3.org/TR/2001/REC-SVG-20010904/DTD/svg10.dtd">
<svg version="1.0" xmlns="http://www.w3.org/2000/svg"
 width="224.000000pt" height="224.000000pt" viewBox="0 0 224.000000 224.000000"
 preserveAspectRatio="xMidYMid meet">
<metadata>
Created by potrace 1.14, written by Peter Selinger 2001-2017
</metadata>
<g transform="translate(0.000000,224.000000) scale(0.100000,-0.100000)"
fill="#000000" stroke="none">
<path d="M937 2103 c-102 -185 -160 -313 -183 -401 -10 -39 -23 -72 -29 -72
-5 0 -45 11 -88 25 -180 58 -396 17 -501 -94 l-30 -31 52 0 c37 0 67 8 109 29
83 42 178 57 267 41 80 -14 171 -48 217 -80 16 -12 32 -20 34 -18 3 2 9 36 14
74 6 38 19 99 31 135 21 70 101 248 130 289 9 14 43 73 74 133 l58 107 -40 0
-40 0 -75 -137z"/>
<path d="M1161 2218 c7 -13 40 -72 74 -133 137 -242 197 -389 211 -515 3 -36
9 -68 11 -72 2 -4 32 10 66 31 82 52 152 71 257 71 89 0 175 -21 229 -57 24
-15 106 -22 119 -9 10 11 -61 65 -138 103 l-74 38 -131 -1 c-116 -1 -137 -3
-199 -27 -38 -15 -70 -26 -71 -25 -2 2 -12 35 -22 73 -31 109 -76 208 -172
381 l-89 159 -42 3 c-40 3 -41 3 -29 -20z"/>
<path d="M1117 2170 c-6 -48 -32 -419 -39 -555 l-2 -50 34 -3 c66 -5 65 -17
41 329 -12 173 -23 319 -25 324 -2 6 -6 -15 -9 -45z"/>
<path d="M1096 1529 c-15 -4 -35 -17 -43 -28 -10 -15 -25 -21 -53 -21 -42 0
-57 -21 -45 -60 7 -23 25 -27 25 -5 0 11 11 15 43 15 24 0 52 7 63 15 12 9 14
14 6 15 -7 0 -10 5 -7 10 9 15 71 12 83 -3 6 -7 17 -54 25 -105 12 -87 12 -92
-5 -98 -19 -6 -128 5 -128 12 0 3 7 21 15 41 30 71 13 103 -54 103 -36 0 -40
-14 -8 -31 12 -6 23 -13 25 -14 6 -5 -22 -61 -42 -82 -24 -28 -31 -28 -54 -5
-77 75 -195 169 -237 188 -49 23 -59 24 -349 24 -164 1 -300 -1 -302 -3 -3 -2
4 -15 14 -27 17 -21 32 -24 143 -34 l124 -11 -115 -5 -115 -5 22 -22 c21 -21
56 -29 153 -36 29 -2 19 -4 -27 -5 -80 -2 -91 -13 -47 -46 17 -12 53 -21 103
-26 l76 -7 -63 -2 c-70 -1 -75 -10 -28 -45 20 -15 49 -22 114 -27 l87 -6 -74
-1 c-73 -2 -74 -2 -56 -22 23 -25 75 -40 144 -40 63 0 64 -9 2 -13 -22 -1 -42
-6 -43 -12 -2 -17 55 -44 113 -54 30 -5 44 -9 32 -10 -13 0 -23 -5 -23 -9 0
-14 103 -62 135 -63 25 0 27 -2 10 -8 -17 -7 -11 -13 42 -39 34 -17 64 -36 67
-41 3 -5 -28 -43 -69 -84 -41 -42 -75 -83 -75 -91 0 -17 106 -116 124 -116 7
0 30 42 50 94 l39 95 -18 43 c-14 32 -19 80 -23 189 l-4 146 129 27 129 28
104 -22 c58 -13 116 -27 129 -32 l24 -9 -5 -132 c-4 -98 -11 -147 -26 -191
l-21 -58 39 -91 c21 -51 43 -93 48 -95 11 -3 132 107 132 122 0 6 -34 45 -75
86 -41 41 -75 78 -75 82 0 3 27 23 60 43 33 20 58 40 55 45 -3 4 12 11 33 15
63 10 133 62 90 66 -7 1 5 5 28 9 55 11 114 37 114 49 0 6 -18 11 -41 11 -24
0 -38 4 -34 10 3 6 30 10 58 10 52 0 118 25 117 45 0 6 -30 13 -67 16 l-68 5
78 2 c43 1 93 9 112 17 38 15 55 42 35 55 -7 5 1 10 23 14 32 6 76 40 65 51
-2 3 -30 6 -62 6 -76 2 -59 16 26 21 63 4 108 24 108 50 0 4 -51 9 -112 9
l-113 2 114 8 c88 5 120 12 139 26 58 43 51 44 -270 41 l-303 -3 -55 -27 c-30
-15 -97 -66 -149 -113 -52 -47 -99 -84 -105 -82 -25 8 -61 191 -43 222 5 9 5
20 1 25 -13 12 -105 18 -138 9z"/>
<path d="M22 1392 c-18 -40 -22 -67 -22 -160 0 -62 4 -112 8 -112 4 0 13 -19
19 -42 16 -58 85 -162 146 -221 49 -47 154 -117 176 -117 7 0 11 24 11 65 0
94 43 170 119 209 17 9 31 20 31 24 0 5 -14 18 -31 31 l-30 23 -40 -27 c-42
-27 -91 -95 -110 -152 -7 -21 -17 -33 -29 -33 -22 0 -123 107 -149 158 -50 97
-65 235 -36 317 13 37 13 41 -7 62 -12 13 -24 23 -28 23 -4 0 -16 -22 -28 -48z"/>
<path d="M2165 1420 c-16 -18 -17 -25 -5 -80 15 -70 9 -187 -13 -248 -8 -24
-28 -62 -44 -85 -37 -56 -122 -139 -137 -134 -6 2 -20 27 -30 56 -25 68 -104
152 -143 151 -4 -1 -21 -11 -37 -24 l-29 -24 39 -20 c79 -41 114 -104 114
-207 0 -38 4 -65 10 -65 33 0 124 62 189 127 59 61 82 93 117 169 44 93 44 95
44 204 0 61 -4 118 -10 128 -5 9 -14 29 -20 45 -11 32 -21 34 -45 7z"/>
<path d="M217 1190 c-14 -38 -18 -40 -56 -40 -49 0 -51 -8 -10 -35 30 -20 33
-37 14 -87 -10 -24 10 -23 46 3 l29 20 36 -28 36 -27 -7 52 c-7 51 -6 52 24
69 41 24 39 33 -8 33 -42 0 -56 11 -66 53 -10 37 -19 34 -38 -13z"/>
<path d="M1985 1190 c-16 -37 -21 -40 -57 -40 -27 0 -38 -4 -38 -15 0 -8 3
-15 8 -15 4 -1 17 -9 29 -19 20 -17 21 -23 12 -50 -16 -46 -7 -54 30 -27 l34
25 28 -19 c34 -25 52 -26 45 -2 -2 9 -7 27 -11 39 -4 17 1 27 25 44 39 29 38
39 -2 39 -42 0 -55 9 -63 43 -11 41 -20 40 -40 -3z"/>
<path d="M985 1156 l-90 -22 -3 -39 c-2 -22 -1 -54 3 -72 l6 -33 224 0 225 0
1 23 c2 33 -2 122 -6 125 -10 11 -177 41 -220 41 -27 0 -90 -11 -140 -23z
m155 -22 c0 -14 -21 -19 -33 -7 -9 9 13 34 24 27 5 -3 9 -12 9 -20z m-56 -15
c-8 -14 -31 -10 -38 7 -3 8 -2 12 4 9 6 -3 10 -1 10 6 0 8 4 8 15 -1 8 -7 12
-16 9 -21z m119 5 c-7 -18 -33 -18 -33 -1 0 19 10 27 25 20 8 -2 11 -11 8 -19z
m-184 -3 c9 -6 10 -10 2 -16 -16 -9 -44 2 -36 15 8 12 16 12 34 1z m247 -14
c1 -11 -5 -17 -17 -17 -10 0 -19 6 -19 13 0 31 31 34 36 4z m-311 -8 c0 -7 -8
-15 -17 -17 -18 -3 -25 18 -11 32 10 10 28 1 28 -15z m369 6 c3 -9 -1 -18 -10
-22 -19 -7 -26 0 -18 21 8 20 20 21 28 1z m-366 -78 c2 -12 -3 -17 -17 -17
-12 0 -21 6 -21 13 0 31 32 34 38 4z m72 -3 c0 -8 -6 -14 -14 -14 -18 0 -29
27 -13 33 16 6 27 -1 27 -19z m73 20 c9 -10 -4 -34 -19 -34 -8 0 -14 6 -14 13
0 22 19 35 33 21z m77 -15 c0 -12 -29 -24 -37 -16 -3 4 -3 13 0 21 6 16 37 11
37 -5z m68 -2 c2 -10 -3 -17 -12 -17 -18 0 -29 16 -21 31 9 14 29 6 33 -14z
m82 -8 c0 -5 -9 -9 -20 -9 -19 0 -27 20 -13 33 7 8 33 -11 33 -24z"/>
<path d="M906 963 c-11 -11 -6 -77 9 -108 13 -29 13 -28 14 37 1 62 -7 87 -23
71z"/>
<path d="M1106 963 c-3 -4 -6 -87 -6 -185 l0 -179 23 3 c21 3 22 8 25 98 5
132 -6 257 -23 264 -7 2 -16 2 -19 -1z"/>
<path d="M1246 963 c-10 -10 -7 -263 3 -263 26 0 35 63 32 226 -1 30 -21 51
-35 37z"/>
<path d="M1327 964 c-11 -11 -8 -136 2 -129 14 8 25 115 14 126 -5 5 -12 6
-16 3z"/>
<path d="M967 953 c-4 -3 -7 -54 -7 -113 0 -92 3 -109 19 -124 11 -10 20 -13
22 -7 2 6 3 65 1 131 -2 89 -6 120 -16 120 -7 0 -16 -3 -19 -7z"/>
<path d="M1036 944 c-12 -31 -7 -289 6 -302 34 -34 38 -15 38 153 0 155 -1
165 -19 165 -10 0 -22 -7 -25 -16z"/>
<path d="M1176 903 c-3 -32 -2 -107 2 -167 7 -105 8 -109 25 -92 15 16 17 35
15 164 -3 127 -5 147 -19 150 -14 2 -18 -8 -23 -55z"/>
<path d="M445 693 c-22 -70 -24 -189 -5 -259 30 -108 88 -185 173 -228 78 -39
152 -50 227 -33 l61 15 26 -52 c14 -28 39 -70 55 -93 26 -38 33 -43 68 -43 22
0 40 2 40 6 0 3 -17 31 -38 62 -22 31 -57 96 -80 145 -22 48 -43 87 -47 87 -3
0 -24 -12 -48 -27 -145 -92 -342 23 -373 218 -8 45 -4 47 37 17 45 -34 153
-38 214 -8 61 29 73 53 39 75 -23 15 -28 15 -49 1 -95 -62 -237 12 -260 137
-4 20 -11 37 -15 37 -4 0 -15 -26 -25 -57z"/>
<path d="M1767 740 c-2 -8 -10 -33 -17 -55 -36 -115 -140 -166 -238 -116 -37
19 -39 19 -62 1 -21 -16 -22 -20 -10 -35 48 -58 172 -76 247 -37 23 12 45 22
48 22 14 0 2 -71 -21 -120 -67 -145 -231 -204 -352 -126 -24 15 -45 26 -47 24
-1 -2 -15 -32 -31 -68 -29 -68 -95 -182 -122 -212 -14 -17 -12 -18 31 -18 l46
0 55 94 56 94 47 -15 c148 -45 330 54 395 215 32 80 33 255 1 322 -13 28 -23
39 -26 30z"/>
<path d="M881 639 c-40 -93 -42 -101 -26 -113 16 -11 14 -15 -15 -39 -24 -20
-42 -27 -75 -27 -50 0 -68 -20 -54 -57 10 -28 25 -30 32 -4 4 16 15 18 83 19
93 1 111 -3 117 -26 3 -13 6 -11 17 10 16 33 1 58 -35 58 -28 0 -38 10 -24 26
7 8 22 11 40 7 27 -5 30 -2 49 42 33 76 34 91 11 116 -12 13 -31 38 -44 56
-12 18 -25 33 -28 33 -3 0 -25 -45 -48 -101z"/>
<path d="M1267 679 l-47 -60 28 -67 c26 -64 29 -67 61 -67 19 0 36 -6 38 -12
3 -8 -4 -13 -19 -13 -12 0 -29 -4 -36 -9 -17 -10 -12 -63 7 -69 10 -3 12 0 8
11 -5 13 7 16 82 19 106 4 121 1 121 -19 0 -13 3 -13 15 -3 17 14 20 59 5 61
-5 1 -14 3 -20 4 -5 1 -25 3 -44 4 -21 0 -46 11 -62 24 -23 20 -25 26 -14 44
12 18 8 32 -24 109 -21 49 -41 92 -45 96 -3 4 -27 -20 -54 -53z"/>
<path d="M1025 559 c-9 -28 -14 -53 -10 -57 8 -9 211 -9 219 -1 9 9 -27 99
-39 99 -5 0 -19 -7 -29 -15 -27 -20 -56 -18 -86 5 -14 11 -28 20 -32 20 -3 0
-14 -23 -23 -51z"/>
</g>
</svg>
